<?xml version="1.0" encoding="UTF-8" standalone="no"?>
<svg
   xmlns:dc="http://purl.org/dc/elements/1.1/"
   xmlns:cc="http://creativecommons.org/ns#"
   xmlns:rdf="http://www.w3.org/1999/02/22-rdf-syntax-ns#"
   xmlns:svg="http://www.w3.org/2000/svg"
   xmlns="http://www.w3.org/2000/svg"
   xmlns:sodipodi="http://sodipodi.sourceforge.net/DTD/sodipodi-0.dtd"
   xmlns:inkscape="http://www.inkscape.org/namespaces/inkscape"
   viewBox="0 -256 1792 1792"
   id="svg3013"
   version="1.1"
   inkscape:version="0.92.3 (2405546, 2018-03-11)"
   width="100%"
   height="100%"
   sodipodi:docname="phone.svg">
  <metadata
     id="metadata3023">
    <rdf:RDF>
      <cc:Work
         rdf:about="">
        <dc:format>image/svg+xml</dc:format>
        <dc:type
           rdf:resource="http://purl.org/dc/dcmitype/StillImage" />
        <dc:title />
      </cc:Work>
    </rdf:RDF>
  </metadata>
  <defs
     id="defs3021" />
  <sodipodi:namedview
     pagecolor="#ffffff"
     bordercolor="#666666"
     borderopacity="1"
     objecttolerance="10"
     gridtolerance="10"
     guidetolerance="10"
     inkscape:pageopacity="0"
     inkscape:pageshadow="2"
     inkscape:window-width="1680"
     inkscape:window-height="987"
     id="namedview3019"
     showgrid="false"
     inkscape:zoom="0.26339286"
     inkscape:cx="-81.898397"
     inkscape:cy="421.06316"
     inkscape:window-x="-8"
     inkscape:window-y="-8"
     inkscape:window-maximized="1"
     inkscape:current-layer="g3015" />
  <g
     transform="matrix(1,0,0,-1,159.45763,1293.0169)"
     id="g3015">
    <path
       d="m 1632,134.45532 q 0,-34.29863 -12.6964,-89.55754 -12.6966,-55.258913 -26.6625,-87.016911 -26.6627,-63.515989 -154.8969,-134.653879 -119.3466,-64.78631 -236.1541,-64.78631 -34.2804,0 -66.6564,4.44611 -32.3759,4.44612 -73.0045,15.87901 -40.6288,11.43287 -60.3083,18.41964 -19.67946,6.98676 -70.46527,26.04155 -50.78583,19.0548 -62.21264,22.86574 Q 744.51771,-109.44606 646.755,-48.470729 484.24037,51.884528 310.93375,225.28317 137.62712,398.68182 37.325116,561.28273 q -60.942991,97.81463 -105.380587,222.30595 -3.808936,11.4329 -22.853621,62.24568 -19.044678,50.81278 -26.027728,70.50275 -6.98306,19.68996 -18.40987,60.34016 -11.4268,40.65023 -15.87057,73.04353 -4.44376,32.393 -4.44376,66.6916 0,116.8695 64.751928,236.2794 71.100154,128.3024 134.582435,154.9792 31.741144,13.9734 86.970727,26.6767 55.22958,12.7032 89.51001,12.7032 17.77504,0 26.66256,-3.811 22.85361,-7.622 67.29123,-96.5443 13.96609,-24.1361 38.08936,-68.5972 24.12327,-44.4612 44.4376,-80.6654 20.31432,-36.204 39.35901,-67.9621 3.80893,-5.0813 22.21879,-31.758 18.40987,-26.6766 27.29738,-45.0963 8.88753,-18.4198 8.88753,-36.2042 0,-25.4064 -36.18491,-63.5159 -36.18489,-38.1097 -78.71801,-69.86767 -42.53314,-31.75794 -78.71803,-67.32688 -36.18491,-35.56895 -36.18491,-58.43472 0,-11.43287 6.34823,-28.5822 6.34821,-17.14929 10.79198,-26.04155 4.44376,-8.89223 17.77505,-30.48766 13.33127,-21.59545 14.60093,-24.13607 96.49306,-174.0338 220.91833,-298.52514 124.42525,-124.49134 298.36672,-221.03562 2.53929,-1.27032 24.12326,-14.60869 21.58396,-13.33835 30.4715,-17.78448 8.88752,-4.44612 26.02771,-10.79772 17.14024,-6.35158 28.56704,-6.35158 22.85362,0 58.40377,36.20411 35.5501,36.2041 67.2913,78.7598 31.7411,42.55573 69.8305,78.75983 38.0893,36.20411 63.4821,36.20411 17.7751,0 36.185,-8.89222 18.4098,-8.89225 45.0725,-27.31189 26.6624,-18.41963 31.7411,-22.23059 31.7411,-19.05479 67.9259,-39.37992 36.1849,-20.32511 80.6225,-44.46119 44.4377,-24.13606 68.5609,-38.10957 88.8751,-44.4612 96.4932,-67.32697 3.8088,-8.89223 3.8088,-26.6767 z"
       id="path3017"
       inkscape:connector-curvature="0"
       style="fill:#db0a5b;fill-opacity:1;stroke-width:1.26998258" />
  </g>
</svg>
